<?xml version="1.0" encoding="utf-8"?>
<!-- Generator: Adobe Illustrator 24.2.3, SVG Export Plug-In . SVG Version: 6.00 Build 0)  -->
<svg version="1.1" id="Layer_1" xmlns="http://www.w3.org/2000/svg" xmlns:xlink="http://www.w3.org/1999/xlink" x="0px" y="0px"
	 viewBox="0 0 100 100" style="enable-background:new 0 0 100 100;" xml:space="preserve">
<style type="text/css">
	.st0{fill:#F16323;}
	.st1{fill:#4CC6EB;}
	.st2{fill:#6C4EA0;}
	.st3{fill:#F49F2A;}
	.st4{fill:#46B596;}
	.st5{fill:#5E266A;}
</style>
<g>
	<g>
		<path class="st0" d="M18.97,17.52c6.88-6.56,14.98-10.49,24.49-11.4c0.23-0.02,0.44-0.38,0.65-0.58c3,0,5.99,0,8.99,0
			c12.04,1.84,22.41,6.75,30.15,16.47c0.32,0.4,0.55,0.86,0.82,1.29c-1.39,1.22-2.78,2.44-4.17,3.66
			C63.44,7.98,42.59,6.05,22.74,21.65C21.48,20.27,20.23,18.89,18.97,17.52z"/>
		<path class="st1" d="M79.9,26.95c1.39-1.22,2.78-2.44,4.17-3.66c5.42,6.38,7.53,14.09,8.9,22.1c0,3.13,0,6.25,0,9.38
			c-1.73,7.36-3.63,14.64-8.62,20.64c-1.47-1.12-2.94-2.24-4.41-3.35C89.67,57.02,89.74,41.98,79.9,26.95z"/>
		<path class="st2" d="M79.93,72.06c1.47,1.12,2.94,2.24,4.41,3.35C77.12,85.5,67.19,91.1,55.07,93.07
			c-0.41,0.07-0.79,0.26-1.19,0.4c-3.13,0-6.25,0-9.38,0c0.16-1.95,0.31-3.9,0.47-5.86C59.32,88.48,71.01,83.39,79.93,72.06z"/>
		<path class="st3" d="M18.97,17.52c1.26,1.38,2.52,2.75,3.77,4.13c-8.57,8.58-12.59,18.9-11.9,31.04
			c-1.94,0.05-3.87,0.09-5.81,0.14c0-2.74,0-5.47,0-8.21C6.93,34.17,10.85,24.76,18.97,17.52z"/>
		<path class="st4" d="M44.97,87.61c-0.16,1.95-0.31,3.9-0.47,5.86c-0.26,0-0.52,0-0.78,0c-11.11-2.18-20.95-6.68-28.32-15.64
			c-0.24-0.29-0.43-0.63-0.64-0.95c1.47-1.12,2.94-2.24,4.41-3.37C25.97,81.52,34.59,86.16,44.97,87.61z"/>
		<path class="st5" d="M19.18,73.5c-1.47,1.12-2.94,2.24-4.41,3.37c-5.76-6.41-8.05-14.31-9.74-22.49c0-0.52,0-1.04,0-1.56
			c1.94-0.05,3.87-0.09,5.81-0.14C11.68,60.4,14.43,67.35,19.18,73.5z"/>
	</g>
	<g>
		<path class="st0" d="M25.18,36.25v4.4c0.74-0.86,1.62-1.3,2.66-1.3c0.53,0,1,0.09,1.44,0.3c0.42,0.19,0.74,0.44,0.97,0.76
			c0.21,0.3,0.37,0.65,0.44,1.02c0.07,0.37,0.12,0.95,0.12,1.74v5.09h-2.29v-4.63c0-0.9-0.05-1.48-0.14-1.74
			c-0.09-0.25-0.23-0.44-0.46-0.58c-0.23-0.14-0.49-0.21-0.83-0.21c-0.37,0-0.72,0.09-1.02,0.28c-0.3,0.19-0.51,0.46-0.65,0.83
			c-0.14,0.37-0.21,0.93-0.21,1.67v4.35h-2.29V36.25H25.18z"/>
		<path class="st0" d="M38.15,45.46l2.29,0.39c-0.3,0.83-0.76,1.48-1.39,1.92s-1.44,0.65-2.38,0.65c-1.5,0-2.64-0.49-3.36-1.48
			c-0.58-0.79-0.86-1.78-0.86-2.99c0-1.44,0.37-2.57,1.13-3.38c0.74-0.81,1.71-1.23,2.85-1.23c1.3,0,2.32,0.42,3.06,1.27
			c0.74,0.86,1.11,2.15,1.06,3.91h-5.74c0.02,0.67,0.21,1.2,0.56,1.6c0.35,0.37,0.79,0.58,1.32,0.58c0.37,0,0.67-0.09,0.9-0.3
			S38.03,45.9,38.15,45.46z M38.29,43.15c-0.02-0.67-0.19-1.18-0.51-1.53c-0.32-0.35-0.72-0.51-1.2-0.51
			c-0.51,0-0.93,0.19-1.25,0.56c-0.32,0.37-0.49,0.86-0.49,1.48C34.84,43.15,38.29,43.15,38.29,43.15z"/>
		<path class="st0" d="M42.38,39.54h2.15v1.27c0.28-0.44,0.65-0.79,1.13-1.06c0.46-0.28,1-0.42,1.57-0.42
			c1.02,0,1.88,0.39,2.57,1.18c0.69,0.79,1.06,1.9,1.06,3.31c0,1.46-0.35,2.57-1.06,3.38c-0.72,0.81-1.57,1.2-2.57,1.2
			c-0.49,0-0.93-0.09-1.3-0.28c-0.39-0.19-0.81-0.51-1.23-0.97v4.38h-2.29V39.54H42.38z M44.65,43.75c0,0.97,0.19,1.69,0.58,2.15
			c0.39,0.46,0.86,0.69,1.41,0.69c0.53,0,0.97-0.21,1.34-0.65c0.35-0.42,0.53-1.13,0.53-2.11c0-0.9-0.19-1.6-0.56-2.04
			c-0.37-0.44-0.81-0.67-1.37-0.67c-0.56,0-1.02,0.21-1.39,0.65C44.84,42.24,44.65,42.89,44.65,43.75z"/>
		<path class="st0" d="M51.88,45.74l2.32-0.35c0.09,0.44,0.3,0.79,0.6,1.02c0.3,0.23,0.72,0.35,1.25,0.35c0.6,0,1.04-0.12,1.34-0.32
			c0.21-0.16,0.3-0.35,0.3-0.63c0-0.19-0.05-0.32-0.16-0.44s-0.37-0.21-0.76-0.3c-1.85-0.42-3.03-0.79-3.52-1.11
			c-0.69-0.46-1.04-1.11-1.04-1.94c0-0.76,0.3-1.39,0.9-1.9c0.6-0.51,1.5-0.76,2.75-0.76c1.18,0,2.06,0.19,2.64,0.58
			s0.97,0.95,1.2,1.71l-2.18,0.39c-0.09-0.35-0.28-0.6-0.53-0.79s-0.63-0.28-1.11-0.28c-0.6,0-1.04,0.09-1.3,0.25
			c-0.19,0.12-0.25,0.28-0.25,0.46c0,0.16,0.07,0.3,0.23,0.42c0.21,0.16,0.93,0.37,2.15,0.65c1.23,0.28,2.08,0.63,2.57,1.02
			c0.49,0.42,0.72,0.97,0.72,1.71c0,0.79-0.32,1.48-1,2.06c-0.67,0.58-1.64,0.86-2.96,0.86c-1.18,0-2.13-0.23-2.8-0.72
			C52.52,47.22,52.08,46.57,51.88,45.74z"/>
		<path class="st0" d="M61.99,38.38v-2.13h2.29v2.13H61.99z M61.99,48.24v-8.7h2.29v8.68h-2.29V48.24z"/>
		<path class="st0" d="M22.91,63.52V51.53h2.29v4.33c0.72-0.81,1.55-1.2,2.52-1.2c1.06,0,1.92,0.39,2.62,1.16
			c0.69,0.76,1.04,1.88,1.04,3.31c0,1.48-0.35,2.62-1.06,3.43c-0.69,0.81-1.57,1.2-2.57,1.2c-0.49,0-1-0.12-1.46-0.37
			c-0.49-0.25-0.9-0.63-1.25-1.11v1.27h-2.13V63.52z M25.18,58.98c0,0.9,0.14,1.57,0.42,1.99c0.39,0.6,0.93,0.93,1.6,0.93
			c0.51,0,0.95-0.21,1.3-0.65c0.35-0.44,0.53-1.11,0.53-2.04c0-1-0.19-1.71-0.53-2.15c-0.37-0.44-0.81-0.65-1.39-0.65
			c-0.56,0-1.02,0.21-1.37,0.65C25.37,57.45,25.18,58.1,25.18,58.98z"/>
		<path class="st0" d="M38.96,63.52v-1.3c-0.32,0.46-0.74,0.83-1.25,1.09c-0.51,0.28-1.06,0.39-1.62,0.39
			c-0.58,0-1.11-0.14-1.57-0.39c-0.46-0.25-0.81-0.63-1-1.09c-0.21-0.46-0.3-1.11-0.3-1.92v-5.49h2.29v4.01
			c0,1.23,0.05,1.97,0.12,2.25c0.09,0.28,0.23,0.49,0.46,0.65c0.23,0.16,0.51,0.23,0.86,0.23c0.39,0,0.74-0.12,1.06-0.32
			c0.3-0.21,0.53-0.49,0.65-0.81c0.12-0.32,0.16-1.11,0.16-2.34v-3.66h2.29v8.68h-2.15V63.52z"/>
		<path class="st0" d="M45.67,63.52h-2.29v-8.7h2.13v1.23c0.37-0.58,0.69-0.97,1-1.16c0.3-0.19,0.63-0.28,1-0.28
			c0.53,0,1.02,0.14,1.5,0.44l-0.72,2.01c-0.39-0.25-0.74-0.37-1.09-0.37c-0.32,0-0.6,0.09-0.81,0.25
			c-0.23,0.19-0.39,0.49-0.53,0.97c-0.14,0.46-0.19,1.44-0.19,2.92V63.52z"/>
		<path class="st0" d="M51.69,57.48l-2.08-0.37c0.23-0.83,0.65-1.46,1.2-1.88c0.58-0.39,1.41-0.6,2.55-0.6
			c1.02,0,1.78,0.12,2.29,0.37c0.51,0.23,0.86,0.56,1.06,0.93c0.21,0.37,0.3,1.06,0.3,2.06l-0.02,2.69c0,0.76,0.05,1.32,0.12,1.69
			c0.07,0.37,0.21,0.74,0.42,1.16h-2.27c-0.07-0.16-0.14-0.37-0.23-0.67c-0.05-0.14-0.07-0.23-0.09-0.28
			c-0.39,0.37-0.81,0.67-1.25,0.86s-0.93,0.28-1.44,0.28c-0.9,0-1.6-0.23-2.11-0.72s-0.76-1.09-0.76-1.83
			c0-0.49,0.12-0.93,0.35-1.32c0.23-0.39,0.56-0.67,1-0.88c0.42-0.21,1.04-0.39,1.83-0.53c1.06-0.21,1.83-0.39,2.22-0.56v-0.23
			c0-0.44-0.12-0.76-0.32-0.95c-0.21-0.19-0.63-0.28-1.23-0.28c-0.42,0-0.72,0.07-0.95,0.23C52.01,56.78,51.83,57.06,51.69,57.48z
			 M54.77,59.33c-0.3,0.09-0.76,0.21-1.39,0.35c-0.65,0.14-1.06,0.28-1.25,0.39c-0.3,0.21-0.44,0.49-0.44,0.81
			c0,0.32,0.12,0.6,0.37,0.83c0.23,0.23,0.56,0.35,0.93,0.35c0.42,0,0.81-0.14,1.18-0.42c0.28-0.21,0.46-0.46,0.56-0.76
			c0.07-0.19,0.09-0.58,0.09-1.11v-0.44H54.77z"/>
		<path class="st0" d="M67.27,63.52h-2.13v-1.27c-0.35,0.49-0.76,0.86-1.25,1.11c-0.49,0.23-0.97,0.37-1.46,0.37
			c-1,0-1.85-0.39-2.57-1.2c-0.72-0.81-1.06-1.92-1.06-3.36c0-1.48,0.35-2.59,1.04-3.36s1.57-1.16,2.62-1.16
			c0.97,0,1.81,0.39,2.52,1.2v-4.33h2.29L67.27,63.52L67.27,63.52z M61.14,58.98c0,0.93,0.14,1.6,0.39,2.01
			c0.37,0.6,0.88,0.9,1.55,0.9c0.53,0,0.97-0.23,1.34-0.67c0.37-0.44,0.56-1.11,0.56-2.01c0-1-0.19-1.71-0.53-2.15
			c-0.37-0.44-0.81-0.65-1.39-0.65c-0.56,0-1,0.21-1.37,0.65C61.32,57.48,61.14,58.13,61.14,58.98z"/>
		<path class="st0" d="M71.25,57.48l-2.08-0.37c0.23-0.83,0.65-1.46,1.2-1.88c0.58-0.39,1.41-0.6,2.55-0.6
			c1.02,0,1.78,0.12,2.29,0.37c0.51,0.23,0.86,0.56,1.06,0.93c0.21,0.37,0.3,1.06,0.3,2.06l-0.02,2.69c0,0.76,0.05,1.32,0.12,1.69
			c0.07,0.37,0.21,0.74,0.42,1.16h-2.27c-0.07-0.16-0.14-0.37-0.23-0.67c-0.05-0.14-0.07-0.23-0.09-0.28
			c-0.39,0.37-0.81,0.67-1.25,0.86s-0.93,0.28-1.44,0.28c-0.9,0-1.6-0.23-2.11-0.72c-0.51-0.49-0.76-1.09-0.76-1.83
			c0-0.49,0.12-0.93,0.35-1.32s0.56-0.67,1-0.88c0.42-0.21,1.04-0.39,1.83-0.53c1.06-0.21,1.83-0.39,2.22-0.56v-0.23
			c0-0.44-0.12-0.76-0.32-0.95c-0.21-0.19-0.63-0.28-1.23-0.28c-0.42,0-0.72,0.07-0.95,0.23S71.39,57.06,71.25,57.48z M74.31,59.33
			c-0.3,0.09-0.76,0.21-1.39,0.35c-0.63,0.14-1.06,0.28-1.25,0.39c-0.3,0.21-0.44,0.49-0.44,0.81c0,0.32,0.12,0.6,0.37,0.83
			c0.23,0.23,0.56,0.35,0.93,0.35c0.42,0,0.81-0.14,1.18-0.42c0.28-0.21,0.46-0.46,0.56-0.76c0.07-0.19,0.09-0.58,0.09-1.11v-0.44
			H74.31z"/>
	</g>
</g>
</svg>
